<svg version="1.1" xmlns="http://www.w3.org/2000/svg" xmlns:xlink="http://www.w3.org/1999/xlink" x="0px" y="0px" viewBox="0 0 1000 1000" enable-background="new 0 0 1000 1000" xml:space="preserve">
<g><g><path d="M981.1,541.7l-29.7,8.5v114h-85.6l-64.1-80.8h-147v108c0,14.4-5.5,26.1-12.2,26.1l-167.4-134H225.5c-2.9,0-5.8-0.1-8.7-0.1V416.8c2.9,0,5.8-0.1,8.7-0.1H485l157.5-134c6.8,0,12.2,11.7,12.2,26.1v107.9h137.8l73.2-93h85.6v127.5l29.7,8.9C1001.1,502.4,981.1,541.7,981.1,541.7z M10,500c0,41.5,74.2,76,171.3,82.3V417.7C84.3,424.1,10,458.5,10,500z"/></g><g></g><g></g><g></g><g></g><g></g><g></g><g></g><g></g><g></g><g></g><g></g><g></g><g></g><g></g><g></g></g>
</svg>